<?xml version="1.0" encoding="UTF-8"?>
<svg width="258px" height="103px" viewBox="0 0 258 103" version="1.1" xmlns="http://www.w3.org/2000/svg" xmlns:xlink="http://www.w3.org/1999/xlink">
    <title>Background/Lg/Purple</title>
    <defs>
        <rect id="path-1" x="0" y="0" width="258" height="103"></rect>
        <linearGradient x1="50%" y1="0%" x2="50%" y2="100%" id="linearGradient-3">
            <stop stop-color="#674186" offset="0%"></stop>
            <stop stop-color="#BF4A8E" offset="40.5405%"></stop>
            <stop stop-color="#674186" offset="100%"></stop>
        </linearGradient>
        <linearGradient x1="50.5724852%" y1="34.275266%" x2="50.0508198%" y2="145.283751%" id="linearGradient-4">
            <stop stop-color="#674186" offset="0%"></stop>
            <stop stop-color="#BF4A8E" offset="100%"></stop>
        </linearGradient>
        <linearGradient x1="50.4709157%" y1="66.6718551%" x2="50.0914679%" y2="107.172382%" id="linearGradient-5">
            <stop stop-color="#674186" offset="0%"></stop>
            <stop stop-color="#BF4A8E" offset="100%"></stop>
        </linearGradient>
        <linearGradient x1="50.7233577%" y1="58.6125669%" x2="50.8884108%" y2="108.750241%" id="linearGradient-6">
            <stop stop-color="#674186" offset="0%"></stop>
            <stop stop-color="#BF4A8E" offset="100%"></stop>
        </linearGradient>
        <linearGradient x1="50.6629799%" y1="56.796251%" x2="50.8636102%" y2="112.524444%" id="linearGradient-7">
            <stop stop-color="#674186" offset="0%"></stop>
            <stop stop-color="#BF4A8E" offset="100%"></stop>
        </linearGradient>
        <linearGradient x1="52.6736271%" y1="53.7628171%" x2="52.4513356%" y2="83.4626709%" id="linearGradient-8">
            <stop stop-color="#674186" offset="0%"></stop>
            <stop stop-color="#BF4A8E" offset="100%"></stop>
        </linearGradient>
        <linearGradient x1="49.83507%" y1="37.0000814%" x2="49.7392532%" y2="69.4408511%" id="linearGradient-9">
            <stop stop-color="#BF4A8E" offset="0%"></stop>
            <stop stop-color="#674186" offset="48.7155%"></stop>
            <stop stop-color="#BF4A8E" offset="100%"></stop>
        </linearGradient>
        <linearGradient x1="50.0347222%" y1="47.9003795%" x2="49.8051389%" y2="84.0152249%" id="linearGradient-10">
            <stop stop-color="#BF4A8E" offset="0%"></stop>
            <stop stop-color="#674186" offset="26.9366%"></stop>
            <stop stop-color="#BF4A8E" offset="100%"></stop>
        </linearGradient>
        <linearGradient x1="50.0630743%" y1="49.7092844%" x2="50.2061184%" y2="67.3364204%" id="linearGradient-11">
            <stop stop-color="#BF4A8E" offset="0%"></stop>
            <stop stop-color="#674186" offset="48.3823%"></stop>
            <stop stop-color="#BF4A8E" offset="100%"></stop>
        </linearGradient>
        <linearGradient x1="50.5724852%" y1="34.2753324%" x2="50.8052309%" y2="95.3314438%" id="linearGradient-12">
            <stop stop-color="#674186" offset="0%"></stop>
            <stop stop-color="#BF4A8E" offset="100%"></stop>
        </linearGradient>
        <linearGradient x1="51.0756419%" y1="27.2017517%" x2="50.2854104%" y2="86.3194201%" id="linearGradient-13">
            <stop stop-color="#674186" offset="0%"></stop>
            <stop stop-color="#BF4A8E" offset="87.2659%"></stop>
            <stop stop-color="#BF4A8E" offset="100%"></stop>
        </linearGradient>
        <linearGradient x1="50.65625%" y1="46.8901117%" x2="50.6541667%" y2="104.462256%" id="linearGradient-14">
            <stop stop-color="#674186" offset="0%"></stop>
            <stop stop-color="#BF4A8E" offset="90.516%"></stop>
        </linearGradient>
        <linearGradient x1="50.6556558%" y1="38.0469629%" x2="50.8884108%" y2="108.750241%" id="linearGradient-15">
            <stop stop-color="#674186" offset="0%"></stop>
            <stop stop-color="#BF4A8E" offset="100%"></stop>
        </linearGradient>
        <linearGradient x1="50.62125%" y1="45.2050526%" x2="50.8640278%" y2="112.640501%" id="linearGradient-16">
            <stop stop-color="#674186" offset="0%"></stop>
            <stop stop-color="#BF4A8E" offset="76.5625%"></stop>
        </linearGradient>
        <linearGradient x1="53.7560573%" y1="49.9998532%" x2="52.4400161%" y2="83.4618816%" id="linearGradient-17">
            <stop stop-color="#674186" offset="0%"></stop>
            <stop stop-color="#BF4A8E" offset="100%"></stop>
        </linearGradient>
        <linearGradient x1="49.8579569%" y1="29.2512426%" x2="49.7327311%" y2="71.6490632%" id="linearGradient-18">
            <stop stop-color="#674186" offset="0%"></stop>
            <stop stop-color="#BF4A8E" offset="100%"></stop>
        </linearGradient>
        <linearGradient x1="50.00375%" y1="47.3513098%" x2="49.8020833%" y2="84.0154624%" id="linearGradient-19">
            <stop stop-color="#674186" offset="0%"></stop>
            <stop stop-color="#BF4A8E" offset="100%"></stop>
        </linearGradient>
        <linearGradient x1="50.1618714%" y1="0%" x2="50.1618714%" y2="169.836975%" id="linearGradient-20">
            <stop stop-color="#381A51" offset="0%"></stop>
            <stop stop-color="#674186" offset="27.0214161%"></stop>
            <stop stop-color="#BF4A8E" offset="100%"></stop>
        </linearGradient>
    </defs>
    <g id="Buttons-+-links" stroke="none" stroke-width="1" fill="none" fill-rule="evenodd">
        <g id="Dashboard-//-Link-states" transform="translate(0.000000, -291.000000)">
            <g id="Background/Lg/Purple" transform="translate(0.000000, 291.000000)">
                <mask id="mask-2" fill="white">
                    <use xlink:href="#path-1"></use>
                </mask>
                <use id="Mask" fill="#D8D8D8" xlink:href="#path-1"></use>
                <g id="Group" mask="url(#mask-2)">
                    <g transform="translate(-228.000000, -2195.000000)" id="Group" fill-rule="nonzero">
                        <rect id="Pink-BG-18" fill="url(#linearGradient-3)" x="0" y="2259.38977" width="1264" height="1684.24049"></rect>
                        <path d="M0,1152.05206 L1264,1152.05206 L1264,2246.97242 C1264,2257.04166 1264,2280.68248 1264,2303.14126 C968.627778,2309.55931 707.467822,2468.93348 445.551222,2468.93348 C245.783922,2468.93348 79.5789822,2422.62374 0,2369.73834 C0,2331.02868 0,2299.13983 0,2278.05572 C0,2108.64733 0,1152.05206 0,1152.05206 Z" id="Pink-BG-17" fill="url(#linearGradient-4)"></path>
                        <path d="M0,1151.17531 L1264,1151.17531 L1264,2104.57264 C1264,2122.51997 1264,2157.10142 1264,2198.21394 C1127.39144,2252.06469 825.583356,2322.51454 567.562333,2291.0498 C326.727322,2261.68621 98.0275889,2197.97756 0,2173.28903 C0,2146.59566 0,2124.27093 0,2099.31976 C0,2074.36859 0,1151.17531 0,1151.17531 Z" id="Pink-BG-16" fill="url(#linearGradient-5)"></path>
                        <path d="M0,1152.05206 L1264,1152.05206 L1264,1987.92376 C1264,2011.55574 1264,2036.93823 1264,2065.91803 C977.955309,2126.89728 649.910906,2179.60534 443.43155,2179.60534 C278.931731,2179.60534 88.3123731,2149.34766 0,2104.21934 C0,2078.95063 0,2054.16332 0,2035.18771 C0,1865.84273 0,1152.05206 0,1152.05206 Z" id="Pink-BG-15" fill="url(#linearGradient-6)"></path>
                        <path d="M0,1148.54505 L1264,1148.54505 L1264,1901.84846 C1264,1935.13395 1264,1982.4344 1264,2005.10358 C1013.491,2057.70343 908.517556,2054.85664 621.444722,1971.40639 C380.614978,1901.39297 110.003989,1994.92522 0,2007.03063 C0,1971.40639 0,1913.91007 0,1897.46878 C0,1727.99304 0,1148.54505 0,1148.54505 Z" id="Pink-BG-14" fill="url(#linearGradient-7)"></path>
                        <path d="M1264,1148.54505 L0,1148.54505 L0,1791.02874 C0,1808.97277 0,1812.47404 0,1831.58224 C128.74054,1785.33042 435.524647,1781.35647 650.433541,1825.1574 C892.656237,1874.52536 1072.74106,1902.21168 1263.56111,1859.72373 C1263.56111,1826.04148 1263.56111,1813.78702 1263.56111,1803.2832 C1263.56111,1792.77938 1264,1148.54505 1264,1148.54505 Z" id="Pink-BG-13" fill="url(#linearGradient-8)"></path>
                        <path d="M1264,1152.05206 L0,1152.05206 L0,1535.5011 C0,1553.88564 0,1576.64745 0,1618.65176 C256.099224,1672.85114 360.357704,1670.77631 650.470738,1586.54884 C885.581765,1518.28966 1149.06296,1605.59873 1264,1621.12929 C1264,1553.88564 1264,1526.16875 1264,1508.36201 C1264,1338.97909 1264,1152.05206 1264,1152.05206 Z" id="Pink-BG-12" fill="url(#linearGradient-9)"></path>
                        <path d="M1264,1148.54505 L0,1148.54505 L0,1536.45392 C0,1569.702 0,1603.87826 0,1642.37143 C121.801322,1723.53457 411.622478,1750.85457 650.457911,1681.45128 C885.405667,1613.16881 1148.70389,1700.49647 1263.56111,1716.03909 C1263.56111,1683.99939 1263.56111,1671.60032 1263.56111,1653.78979 C1263.56111,1484.37081 1264,1148.54505 1264,1148.54505 Z" id="Pink-BG-11" fill="url(#linearGradient-10)"></path>
                        <path d="M0.438584316,1152.05206 L1264,1152.05206 L1264,1411.63258 C1264,1425.6403 1264,1446.65188 1264,1465.98253 C1125.01263,1418.7415 868.709219,1402.20364 695.044741,1449.65478 C532.62732,1494.02423 146.245063,1576.84486 0,1541.58043 C0,1510.56209 0,1492.52715 0,1467.22571 C0,1339.09011 0.438584316,1152.05206 0.438584316,1152.05206 Z" id="Pink-BG-10" fill="url(#linearGradient-11)"></path>
                        <path d="M0,3.50700779 L1264,3.50700779 L1264,1098.42737 C1264,1108.49661 1264,1132.13743 1264,1154.59621 C968.627778,1161.01426 707.467822,1320.38843 445.551222,1320.38843 C245.783922,1320.38843 79.5789822,1274.07869 0,1221.19329 C0,1182.48363 0,1150.59478 0,1129.51067 C0,960.102282 0,3.50700779 0,3.50700779 Z" id="Pink-BG-9" fill="url(#linearGradient-12)"></path>
                        <path d="M0,357.714794 L1263.12161,357.714794 L1264,1193.5865 C1264,1217.21848 1264,1242.60097 1264,1271.58077 C977.955309,1332.56002 649.910906,1385.26808 443.43155,1385.26808 C278.931731,1385.26808 88.3124608,1355.0104 0,1309.88208 C0,1284.61337 0,1259.82605 0,1240.85045 C0,1071.50547 0,357.714794 0,357.714794 Z" id="Pink-BG-8" fill="url(#linearGradient-13)"></path>
                        <path d="M0,2.63025584 L1264,2.63025584 L1264,956.027587 C1264,973.974919 1264,1008.55637 1264,1049.66889 C1127.39144,1103.51964 825.583356,1173.96949 567.562333,1142.50475 C326.727322,1113.14116 98.0275889,1049.43251 0,1024.74398 C0,998.05061 0,975.725879 0,950.774709 C0,925.823539 0,2.63025584 0,2.63025584 Z" id="Pink-BG-7" fill="url(#linearGradient-14)"></path>
                        <path d="M0,3.50700779 L1264,3.50700779 L1264,839.378715 C1264,863.01069 1264,888.393181 1264,917.372985 C977.955309,978.352232 649.910906,1031.06029 443.43155,1031.06029 C278.931731,1031.06029 88.3123731,1000.80261 0,955.674289 C0,930.405581 0,905.618265 0,886.642664 C0,717.296807 0,3.50700779 0,3.50700779 Z" id="Pink-BG-6" fill="url(#linearGradient-15)"></path>
                        <path d="M0,0 L1264,0 L1264,753.303991 C1264,786.589516 1264,833.889999 1264,856.556566 C1013.491,909.159083 908.517556,906.312294 621.444722,822.859351 C380.614978,752.851132 110.003989,846.383458 0,858.489754 C0,822.859351 0,765.365614 0,748.924316 C0,579.447561 0,0 0,0 Z" id="Pink-BG-5" fill="url(#linearGradient-16)"></path>
                        <path d="M1264,0 L0,0 L0,642.483855 C0,660.427886 0,663.929161 0,683.03649 C128.74054,636.786406 435.524647,632.81421 650.433541,676.612527 C892.656237,725.977871 1072.74106,753.66945 1263.56111,711.176233 C1263.56111,677.496599 1263.56111,665.242139 1263.56111,654.738315 C1263.56111,644.234492 1264,0 1264,0 Z" id="Pink-BG-4" fill="url(#linearGradient-17)"></path>
                        <path d="M1264,3.50700779 L0,3.50700779 L0,386.956135 C0,405.340682 0,428.102502 0,470.111193 C256.099224,524.301834 360.357704,522.23401 650.470738,438.00477 C885.581765,369.743821 1149.06296,457.050285 1264,472.588729 C1264,405.340682 1264,377.622913 1264,359.817041 C1264,190.433204 1264,3.50700779 1264,3.50700779 Z" id="Pink-BG-3" fill="url(#linearGradient-18)"></path>
                        <path d="M1264,0 L0,0 L0,387.910951 C0,421.161837 0,455.335654 0,493.825527 C121.801322,574.989982 411.622478,602.310122 650.457911,532.904709 C885.405667,464.628879 1148.70389,551.954377 1263.56111,567.496208 C1263.56111,535.457216 1263.56111,523.0572 1263.56111,505.247446 C1263.56111,335.826682 1264,0 1264,0 Z" id="Pink-BG-2" fill="url(#linearGradient-19)"></path>
                        <path d="M0.438584316,0 L1264,0 L1264,262.440253 C1264,276.60229 1264,297.845346 1264,317.388072 C1125.01263,269.624831 868.709219,252.907432 695.044741,300.878677 C532.62732,345.743126 146.245063,429.470861 0,393.817932 C0,362.459641 0,344.225133 0,318.645838 C0,189.095062 0.438584316,0 0.438584316,0 Z" id="Pink-BG-1" fill="url(#linearGradient-20)"></path>
                    </g>
                </g>
            </g>
        </g>
    </g>
</svg>